<mxfile host="Electron" modified="2023-11-30T21:45:55.168Z" agent="Mozilla/5.0 (Macintosh; Intel Mac OS X 10_15_7) AppleWebKit/537.36 (KHTML, like Gecko) draw.io/22.1.2 Chrome/114.0.5735.289 Electron/25.9.4 Safari/537.36" etag="de88Wr8Ta9W4iTTfHgpc" version="22.1.2" type="device">
  <diagram name="Page-1" id="2ilptwtYqibRNXH5lDaV">
    <mxGraphModel dx="1114" dy="799" grid="1" gridSize="10" guides="1" tooltips="1" connect="1" arrows="1" fold="1" page="1" pageScale="1" pageWidth="827" pageHeight="1169" math="0" shadow="0">
      <root>
        <mxCell id="0" />
        <mxCell id="1" parent="0" />
        <mxCell id="nIhBwzzCcxa1Pqok8NT4-1" value="" style="ellipse;html=1;shape=startState;fillColor=#000000;strokeColor=#000000;" vertex="1" parent="1">
          <mxGeometry x="400" y="370" width="30" height="30" as="geometry" />
        </mxCell>
        <mxCell id="nIhBwzzCcxa1Pqok8NT4-2" value="" style="edgeStyle=orthogonalEdgeStyle;html=1;verticalAlign=bottom;endArrow=open;endSize=8;strokeColor=#000000;rounded=0;" edge="1" source="nIhBwzzCcxa1Pqok8NT4-1" parent="1">
          <mxGeometry relative="1" as="geometry">
            <mxPoint x="415" y="460" as="targetPoint" />
          </mxGeometry>
        </mxCell>
        <mxCell id="nIhBwzzCcxa1Pqok8NT4-7" value="" style="edgeStyle=orthogonalEdgeStyle;rounded=0;orthogonalLoop=1;jettySize=auto;html=1;" edge="1" parent="1">
          <mxGeometry relative="1" as="geometry">
            <mxPoint x="415" y="510" as="sourcePoint" />
            <mxPoint x="415" y="590" as="targetPoint" />
          </mxGeometry>
        </mxCell>
        <mxCell id="nIhBwzzCcxa1Pqok8NT4-8" value="Send" style="edgeLabel;html=1;align=center;verticalAlign=middle;resizable=0;points=[];" vertex="1" connectable="0" parent="nIhBwzzCcxa1Pqok8NT4-7">
          <mxGeometry x="-0.175" y="1" relative="1" as="geometry">
            <mxPoint as="offset" />
          </mxGeometry>
        </mxCell>
        <mxCell id="nIhBwzzCcxa1Pqok8NT4-5" value="Offer state" style="text;html=1;strokeColor=none;fillColor=none;align=center;verticalAlign=middle;whiteSpace=wrap;rounded=0;fontSize=25;" vertex="1" parent="1">
          <mxGeometry x="309" y="280" width="210" height="70" as="geometry" />
        </mxCell>
        <mxCell id="nIhBwzzCcxa1Pqok8NT4-10" value="" style="edgeStyle=orthogonalEdgeStyle;rounded=0;orthogonalLoop=1;jettySize=auto;html=1;" edge="1" parent="1">
          <mxGeometry relative="1" as="geometry">
            <mxPoint x="335" y="615" as="sourcePoint" />
            <mxPoint x="255" y="615" as="targetPoint" />
          </mxGeometry>
        </mxCell>
        <mxCell id="nIhBwzzCcxa1Pqok8NT4-15" value="Decline" style="edgeLabel;html=1;align=center;verticalAlign=middle;resizable=0;points=[];" vertex="1" connectable="0" parent="nIhBwzzCcxa1Pqok8NT4-10">
          <mxGeometry y="-1" relative="1" as="geometry">
            <mxPoint as="offset" />
          </mxGeometry>
        </mxCell>
        <mxCell id="nIhBwzzCcxa1Pqok8NT4-12" value="" style="edgeStyle=orthogonalEdgeStyle;rounded=0;orthogonalLoop=1;jettySize=auto;html=1;" edge="1" parent="1">
          <mxGeometry relative="1" as="geometry">
            <mxPoint x="495" y="615" as="sourcePoint" />
            <mxPoint x="575" y="615" as="targetPoint" />
          </mxGeometry>
        </mxCell>
        <mxCell id="nIhBwzzCcxa1Pqok8NT4-21" value="Accept" style="edgeLabel;html=1;align=center;verticalAlign=middle;resizable=0;points=[];" vertex="1" connectable="0" parent="nIhBwzzCcxa1Pqok8NT4-12">
          <mxGeometry x="-0.325" relative="1" as="geometry">
            <mxPoint as="offset" />
          </mxGeometry>
        </mxCell>
        <mxCell id="nIhBwzzCcxa1Pqok8NT4-16" value="Make counter offer" style="edgeStyle=orthogonalEdgeStyle;rounded=0;orthogonalLoop=1;jettySize=auto;html=1;exitX=0.25;exitY=1;exitDx=0;exitDy=0;entryX=0.25;entryY=0;entryDx=0;entryDy=0;" edge="1" parent="1">
          <mxGeometry relative="1" as="geometry">
            <mxPoint x="375" y="640" as="sourcePoint" />
            <mxPoint x="375" y="720" as="targetPoint" />
          </mxGeometry>
        </mxCell>
        <mxCell id="nIhBwzzCcxa1Pqok8NT4-20" style="edgeStyle=orthogonalEdgeStyle;rounded=0;orthogonalLoop=1;jettySize=auto;html=1;exitX=0.5;exitY=1;exitDx=0;exitDy=0;entryX=0;entryY=0.5;entryDx=0;entryDy=0;" edge="1" parent="1" target="nIhBwzzCcxa1Pqok8NT4-19">
          <mxGeometry relative="1" as="geometry">
            <mxPoint x="175" y="640" as="sourcePoint" />
            <Array as="points">
              <mxPoint x="175" y="1005" />
            </Array>
          </mxGeometry>
        </mxCell>
        <mxCell id="nIhBwzzCcxa1Pqok8NT4-23" value="" style="edgeStyle=orthogonalEdgeStyle;rounded=0;orthogonalLoop=1;jettySize=auto;html=1;" edge="1" parent="1">
          <mxGeometry relative="1" as="geometry">
            <mxPoint x="655" y="640" as="sourcePoint" />
            <mxPoint x="655" y="720" as="targetPoint" />
          </mxGeometry>
        </mxCell>
        <mxCell id="nIhBwzzCcxa1Pqok8NT4-29" value="Other side confirms" style="edgeLabel;html=1;align=center;verticalAlign=middle;resizable=0;points=[];" vertex="1" connectable="0" parent="nIhBwzzCcxa1Pqok8NT4-23">
          <mxGeometry x="-0.375" y="2" relative="1" as="geometry">
            <mxPoint as="offset" />
          </mxGeometry>
        </mxCell>
        <mxCell id="nIhBwzzCcxa1Pqok8NT4-17" style="edgeStyle=orthogonalEdgeStyle;rounded=0;orthogonalLoop=1;jettySize=auto;html=1;exitX=0.75;exitY=0;exitDx=0;exitDy=0;entryX=0.75;entryY=1;entryDx=0;entryDy=0;" edge="1" parent="1">
          <mxGeometry relative="1" as="geometry">
            <mxPoint x="455" y="720" as="sourcePoint" />
            <mxPoint x="455" y="640" as="targetPoint" />
          </mxGeometry>
        </mxCell>
        <mxCell id="nIhBwzzCcxa1Pqok8NT4-18" value="Send" style="edgeLabel;html=1;align=center;verticalAlign=middle;resizable=0;points=[];" vertex="1" connectable="0" parent="nIhBwzzCcxa1Pqok8NT4-17">
          <mxGeometry x="0.1" relative="1" as="geometry">
            <mxPoint as="offset" />
          </mxGeometry>
        </mxCell>
        <mxCell id="nIhBwzzCcxa1Pqok8NT4-19" value="" style="ellipse;html=1;shape=endState;fillColor=#000000;strokeColor=#000000;" vertex="1" parent="1">
          <mxGeometry x="400" y="990" width="30" height="30" as="geometry" />
        </mxCell>
        <mxCell id="nIhBwzzCcxa1Pqok8NT4-25" value="" style="edgeStyle=orthogonalEdgeStyle;rounded=0;orthogonalLoop=1;jettySize=auto;html=1;" edge="1" parent="1">
          <mxGeometry relative="1" as="geometry">
            <mxPoint x="655" y="770" as="sourcePoint" />
            <mxPoint x="655" y="850" as="targetPoint" />
          </mxGeometry>
        </mxCell>
        <mxCell id="nIhBwzzCcxa1Pqok8NT4-30" value="Sign generated docs" style="edgeLabel;html=1;align=center;verticalAlign=middle;resizable=0;points=[];" vertex="1" connectable="0" parent="nIhBwzzCcxa1Pqok8NT4-25">
          <mxGeometry relative="1" as="geometry">
            <mxPoint as="offset" />
          </mxGeometry>
        </mxCell>
        <mxCell id="nIhBwzzCcxa1Pqok8NT4-27" value="" style="edgeStyle=orthogonalEdgeStyle;rounded=0;orthogonalLoop=1;jettySize=auto;html=1;" edge="1" parent="1">
          <mxGeometry relative="1" as="geometry">
            <mxPoint x="655" y="900" as="sourcePoint" />
            <mxPoint x="655" y="980" as="targetPoint" />
          </mxGeometry>
        </mxCell>
        <mxCell id="nIhBwzzCcxa1Pqok8NT4-31" value="Payment processed" style="edgeLabel;html=1;align=center;verticalAlign=middle;resizable=0;points=[];" vertex="1" connectable="0" parent="nIhBwzzCcxa1Pqok8NT4-27">
          <mxGeometry x="-0.175" relative="1" as="geometry">
            <mxPoint as="offset" />
          </mxGeometry>
        </mxCell>
        <mxCell id="nIhBwzzCcxa1Pqok8NT4-28" style="edgeStyle=orthogonalEdgeStyle;rounded=0;orthogonalLoop=1;jettySize=auto;html=1;exitX=0;exitY=0.5;exitDx=0;exitDy=0;entryX=1;entryY=0.5;entryDx=0;entryDy=0;" edge="1" parent="1" target="nIhBwzzCcxa1Pqok8NT4-19">
          <mxGeometry relative="1" as="geometry">
            <mxPoint x="575" y="1005" as="sourcePoint" />
          </mxGeometry>
        </mxCell>
        <mxCell id="nIhBwzzCcxa1Pqok8NT4-33" value="New" style="rounded=0;whiteSpace=wrap;html=1;" vertex="1" parent="1">
          <mxGeometry x="340" y="460" width="150" height="50" as="geometry" />
        </mxCell>
        <mxCell id="nIhBwzzCcxa1Pqok8NT4-34" value="Accepted" style="rounded=0;whiteSpace=wrap;html=1;" vertex="1" parent="1">
          <mxGeometry x="582.5" y="590" width="145" height="50" as="geometry" />
        </mxCell>
        <mxCell id="nIhBwzzCcxa1Pqok8NT4-36" value="Declined" style="rounded=0;whiteSpace=wrap;html=1;" vertex="1" parent="1">
          <mxGeometry x="100" y="590" width="150" height="50" as="geometry" />
        </mxCell>
        <mxCell id="nIhBwzzCcxa1Pqok8NT4-37" value="Sent" style="rounded=0;whiteSpace=wrap;html=1;" vertex="1" parent="1">
          <mxGeometry x="340" y="590" width="150" height="50" as="geometry" />
        </mxCell>
        <mxCell id="nIhBwzzCcxa1Pqok8NT4-38" value="Counter offer" style="rounded=0;whiteSpace=wrap;html=1;" vertex="1" parent="1">
          <mxGeometry x="340" y="720" width="150" height="50" as="geometry" />
        </mxCell>
        <mxCell id="nIhBwzzCcxa1Pqok8NT4-39" value="Confirmed" style="rounded=0;whiteSpace=wrap;html=1;" vertex="1" parent="1">
          <mxGeometry x="577.5" y="720" width="150" height="50" as="geometry" />
        </mxCell>
        <mxCell id="nIhBwzzCcxa1Pqok8NT4-40" value="Docs signed on both sides" style="rounded=0;whiteSpace=wrap;html=1;" vertex="1" parent="1">
          <mxGeometry x="580" y="850" width="150" height="50" as="geometry" />
        </mxCell>
        <mxCell id="nIhBwzzCcxa1Pqok8NT4-41" value="Paid" style="rounded=0;whiteSpace=wrap;html=1;" vertex="1" parent="1">
          <mxGeometry x="582.5" y="980" width="150" height="50" as="geometry" />
        </mxCell>
      </root>
    </mxGraphModel>
  </diagram>
</mxfile>
